<?xml version="1.0" encoding="utf-8"?>
<!-- Generator: Adobe Illustrator 16.0.0, SVG Export Plug-In . SVG Version: 6.00 Build 0)  -->
<!DOCTYPE svg PUBLIC "-//W3C//DTD SVG 1.1//EN" "http://www.w3.org/Graphics/SVG/1.1/DTD/svg11.dtd">
<svg version="1.1" id="Calque_1" xmlns="http://www.w3.org/2000/svg" xmlns:xlink="http://www.w3.org/1999/xlink" x="0px" y="0px"
	 width="643.379px" height="179.963px" viewBox="0 0 643.379 179.963" enable-background="new 0 0 643.379 179.963"
	 xml:space="preserve">
<path fill="#FFFFFF" d="M646.534,179.963H3.157V0h643.186l-52.981,86.735L646.534,179.963z M6.157,176.963H641.37l-51.494-90.28
	L640.993,3H6.157V176.963z"/>
<g id="logo-type" transform="translate(76.800000, 10.800000)">
	<path id="Fill-1" fill="#FFFFFF" d="M186.347,58.933c-1.065-0.926-2.354-1.735-3.865-2.428c-1.512-0.692-3.229-1.4-5.151-2.121
		c-1.459-0.512-2.707-1.003-3.747-1.465c-1.044-0.463-1.913-0.963-2.617-1.503c-0.702-0.54-1.224-1.143-1.562-1.813
		c-0.341-0.667-0.509-1.438-0.509-2.312c0-1.695,0.757-2.943,2.266-3.741c1.509-0.795,3.276-1.195,5.309-1.195
		c2.344,0,4.349,0.221,6.016,0.655c1.662,0.438,2.891,0.86,3.67,1.272l-0.008-6.588c0,0-0.261-0.074-0.423-0.118
		c-0.757-0.204-1.627-0.396-2.616-0.58c-0.986-0.177-2.056-0.332-3.199-0.463c-1.146-0.127-2.292-0.189-3.438-0.189
		c-4.579,0-8.199,1.04-10.854,3.124c-2.651,2.08-3.98,4.893-3.98,8.441c0,1.801,0.313,3.315,0.938,4.548
		c0.625,1.233,1.456,2.288,2.5,3.16c1.04,0.876,2.273,1.634,3.71,2.276c1.431,0.643,2.928,1.272,4.487,1.888
		c3.228,1.285,5.547,2.443,6.948,3.471c1.406,1.027,2.107,2.418,2.107,4.163c0,1.695-0.717,2.931-2.148,3.701
		c-1.431,0.77-3.629,1.195-6.597,1.195c-3.024-0.044-5.095-0.218-7.262-0.926c-1.85-0.627-3.108-1.059-3.983-1.388l0.003,6.653
		c0.689,0.227,1.791,0.568,2.808,0.863c2.252,0.608,4.841,0.848,8.433,0.848c5.154,0,9.122-0.95,11.906-2.854
		c2.783-1.9,4.18-4.703,4.18-8.404c0-1.899-0.286-3.508-0.86-4.818C188.231,60.976,187.416,59.858,186.347,58.933z M275.388,71.513
		c-0.935-0.308-1.751-1.047-2.378-1.795c-0.624-0.745-1.093-1.772-1.406-3.083c-0.312-1.31-0.47-2.968-0.47-4.974V43.159h12.09
		v-6.014h-12.09l0.01-12.605l-7.271,1.686V61.74c0,2.673,0.221,5.026,0.665,7.054c0.438,2.03,1.193,3.8,2.288,5.188
		c1.093,1.388,2.468,2.527,4.266,3.223c1.975,0.816,6.933,1.785,12.143,0.611v-6.29C279.064,72.47,276.326,71.823,275.388,71.513z
		 M253.981,36.611c-0.808-0.078-1.521-0.115-2.146-0.115c-3.176,0-6.039,0.271-8.591,0.811c-2.554,0.54-4.687,1.117-6.401,1.735
		v38.395h7.262V43.742c0.416-0.103,1.288-0.295,2.617-0.577c1.325-0.282,2.667-0.426,4.021-0.426c2.078,0,3.785,0.144,5.111,0.426
		c1.328,0.282,2.275,0.527,2.852,0.732v-6.56c-0.651-0.128-1.562-0.289-2.343-0.42C255.584,36.794,254.789,36.688,253.981,36.611z
		 M220.855,68.147c-2.059,2.646-4.854,3.971-8.395,3.971s-6.337-1.322-8.396-3.971c-2.059-2.647-3.083-6.233-3.083-10.757
		s1.027-8.109,3.083-10.755c2.057-2.648,4.854-3.971,8.396-3.971c3.539,0,6.336,1.322,8.395,3.971
		c2.058,2.648,3.083,6.234,3.083,10.755C223.938,61.914,222.911,65.5,220.855,68.147z M226.165,42.125
		c-1.692-1.851-3.711-3.275-6.052-4.278c-2.346-1.003-4.895-1.503-7.652-1.503s-5.309,0.5-7.653,1.503
		c-2.344,1.003-4.356,2.428-6.051,4.278c-1.689,1.851-3.005,4.073-3.942,6.669c-0.938,2.595-1.404,5.461-1.404,8.597
		c0,3.188,0.469,6.066,1.404,8.637c0.938,2.571,2.253,4.781,3.942,6.632c1.692,1.85,3.71,3.275,6.051,4.277
		c2.347,1.003,4.896,1.503,7.653,1.503c2.757,0,5.309-0.5,7.652-1.503c2.341-1.002,4.357-2.428,6.052-4.277
		c1.689-1.851,3.005-4.062,3.94-6.632c0.938-2.57,1.406-5.448,1.406-8.637c0-3.136-0.469-6.002-1.406-8.597
		C229.169,46.198,227.856,43.975,226.165,42.125L226.165,42.125z"/>
	<path id="Fill-3" fill="#FFFFFF" d="M313.643,24.152c-1.177,0-2.18,0.382-3.002,1.152c-0.826,0.767-1.235,1.804-1.235,3.104
		c0,1.304,0.412,2.338,1.235,3.104c0.822,0.767,1.825,1.152,3.002,1.152s2.18-0.385,3.006-1.152
		c0.822-0.767,1.235-1.804,1.235-3.104s-0.413-2.338-1.235-3.104C315.821,24.534,314.818,24.152,313.643,24.152z M368.517,72.205
		c-0.938-0.307-1.751-1.046-2.378-1.794c-0.624-0.745-1.093-1.772-1.406-3.083c-0.312-1.311-0.469-2.968-0.469-4.974V43.851h12.089
		v-6.014h-12.089V25.425l-7.262,1.232v35.775c0,2.673,0.221,5.026,0.664,7.054c0.439,2.03,1.193,3.8,2.288,5.188
		c1.093,1.388,2.472,2.527,4.266,3.223c1.975,0.816,6.933,1.784,12.143,0.611v-6.29C372.191,73.162,369.455,72.515,368.517,72.205z
		 M348.949,59.626c-1.067-0.926-2.356-1.735-3.865-2.428c-1.51-0.693-3.229-1.4-5.153-2.121c-1.456-0.512-2.707-1.003-3.747-1.465
		c-1.044-0.463-1.913-0.963-2.617-1.503c-0.701-0.54-1.224-1.143-1.562-1.813c-0.338-0.667-0.506-1.438-0.506-2.312
		c0-1.695,0.755-2.943,2.264-3.741c1.509-0.795,3.278-1.195,5.309-1.195c2.346,0,4.349,0.221,6.016,0.655
		c1.664,0.438,2.891,0.86,3.67,1.272l-0.007-6.581c0,0-0.279-0.087-0.422-0.125c-0.756-0.204-1.628-0.397-2.614-0.577
		c-0.99-0.18-2.055-0.335-3.2-0.463c-1.146-0.127-2.292-0.192-3.438-0.192c-4.581,0-8.198,1.04-10.854,3.124
		c-2.654,2.083-3.983,4.896-3.983,8.441c0,1.8,0.313,3.315,0.938,4.548c0.625,1.233,1.456,2.288,2.5,3.16
		c1.04,0.876,2.275,1.634,3.71,2.276c1.431,0.643,2.928,1.272,4.489,1.888c3.226,1.285,5.545,2.443,6.946,3.471
		c1.406,1.027,2.107,2.418,2.107,4.163c0,1.695-0.717,2.931-2.148,3.701c-1.431,0.77-3.632,1.195-6.597,1.195
		c-3.022-0.044-5.095-0.218-7.262-0.926c-1.849-0.627-3.108-1.059-3.983-1.388l0.003,6.653c0.689,0.227,1.791,0.568,2.809,0.863
		c2.251,0.608,4.84,0.848,8.432,0.848c5.154,0,9.122-0.95,11.906-2.854c2.785-1.9,4.179-4.703,4.179-8.404
		c0-1.9-0.285-3.508-0.857-4.818C350.834,61.669,350.014,60.551,348.949,59.626z M310.01,78.129h7.262V38.036h-7.262V78.129z
		 M298.364,71.267c-0.469-0.462-0.808-1.08-1.016-1.85c-0.208-0.771-0.312-1.748-0.312-2.931V19.573l-7.264,1.646v46.423
		c0,3.804,0.938,6.604,2.812,8.404c1.875,1.801,5.517,2.912,10.54,2.972v-6.132c-1.146-0.155-2.107-0.348-2.889-0.578
		C299.459,72.078,298.835,71.73,298.364,71.267L298.364,71.267z"/>
</g>
<g enable-background="new    ">
	<path fill="#FFFFFF" d="M236.733,109.495h3.128c0.35,0,0.632,0.088,0.847,0.263s0.376,0.396,0.484,0.666l8.173,20.401
		c0.188,0.458,0.36,0.956,0.515,1.493c0.155,0.539,0.306,1.097,0.454,1.676c0.121-0.579,0.252-1.137,0.394-1.676
		c0.141-0.537,0.306-1.035,0.495-1.493l8.132-20.401c0.094-0.229,0.255-0.44,0.484-0.636c0.229-0.195,0.511-0.293,0.848-0.293h3.148
		l-11.785,28.918h-3.531L236.733,109.495z"/>
	<path fill="#FFFFFF" d="M272.713,117.647c1.224,0,2.354,0.206,3.39,0.616c1.036,0.41,1.93,1.002,2.684,1.775
		c0.753,0.773,1.342,1.729,1.766,2.865c0.424,1.138,0.636,2.433,0.636,3.885c0,0.565-0.061,0.942-0.182,1.131
		s-0.35,0.282-0.686,0.282h-13.602c0.027,1.291,0.202,2.415,0.525,3.37c0.323,0.955,0.767,1.752,1.332,2.392
		c0.565,0.639,1.238,1.116,2.018,1.433s1.655,0.474,2.624,0.474c0.901,0,1.678-0.104,2.331-0.312
		c0.653-0.208,1.214-0.434,1.685-0.676s0.864-0.468,1.181-0.677c0.316-0.208,0.588-0.312,0.817-0.312
		c0.296,0,0.524,0.114,0.686,0.343l1.009,1.312c-0.444,0.538-0.976,1.006-1.594,1.402c-0.619,0.396-1.282,0.724-1.988,0.979
		c-0.707,0.256-1.437,0.447-2.189,0.575c-0.754,0.128-1.5,0.191-2.24,0.191c-1.413,0-2.714-0.238-3.905-0.716
		s-2.22-1.178-3.087-2.099c-0.868-0.922-1.544-2.062-2.028-3.421c-0.484-1.358-0.727-2.919-0.727-4.682
		c0-1.426,0.219-2.758,0.656-3.996c0.437-1.237,1.066-2.311,1.887-3.219c0.82-0.907,1.823-1.621,3.007-2.139
		C269.901,117.907,271.233,117.647,272.713,117.647z M272.794,120.291c-1.735,0-3.101,0.502-4.097,1.504s-1.614,2.392-1.856,4.167
		h11.119c0-0.834-0.114-1.598-0.343-2.29c-0.229-0.693-0.565-1.292-1.009-1.796c-0.444-0.505-0.985-0.895-1.625-1.171
		C274.344,120.43,273.614,120.291,272.794,120.291z"/>
	<path fill="#FFFFFF" d="M285.769,138.413v-20.442h2.059c0.39,0,0.659,0.074,0.807,0.222c0.148,0.148,0.249,0.404,0.303,0.768
		l0.242,3.188c0.699-1.427,1.563-2.54,2.593-3.34c1.029-0.801,2.237-1.201,3.623-1.201c0.565,0,1.076,0.064,1.534,0.191
		c0.457,0.128,0.881,0.307,1.271,0.535l-0.464,2.684c-0.094,0.337-0.303,0.505-0.625,0.505c-0.188,0-0.478-0.063-0.868-0.191
		c-0.391-0.128-0.936-0.192-1.635-0.192c-1.251,0-2.297,0.363-3.138,1.09s-1.543,1.783-2.109,3.169v13.016H285.769z"/>
	<path fill="#FFFFFF" d="M306.837,111.554c0,0.35-0.07,0.676-0.212,0.979c-0.141,0.303-0.33,0.572-0.565,0.808
		s-0.508,0.42-0.817,0.555s-0.639,0.201-0.989,0.201c-0.35,0-0.676-0.066-0.979-0.201s-0.572-0.319-0.807-0.555
		c-0.236-0.235-0.421-0.505-0.555-0.808c-0.135-0.303-0.202-0.629-0.202-0.979s0.067-0.683,0.202-0.999
		c0.134-0.316,0.319-0.592,0.555-0.827c0.235-0.235,0.504-0.421,0.807-0.556c0.303-0.134,0.628-0.201,0.979-0.201
		c0.35,0,0.679,0.067,0.989,0.201c0.31,0.135,0.582,0.32,0.817,0.556s0.424,0.511,0.565,0.827
		C306.767,110.871,306.837,111.204,306.837,111.554z M306.03,117.971v20.442h-3.592v-20.442H306.03z"/>
	<path fill="#FFFFFF" d="M313.173,138.413v-17.375l-2.26-0.263c-0.282-0.066-0.515-0.171-0.696-0.312
		c-0.181-0.142-0.272-0.346-0.272-0.615v-1.474h3.229v-1.13c0-1.251,0.195-2.397,0.585-3.44c0.39-1.043,0.975-1.94,1.755-2.694
		c0.78-0.753,1.752-1.338,2.916-1.756c1.164-0.416,2.519-0.625,4.066-0.625c0.512,0,1.032,0.034,1.564,0.104
		c0.531,0.068,0.991,0.172,1.382,0.31l-0.121,1.877c-0.027,0.171-0.108,0.279-0.242,0.325c-0.135,0.046-0.329,0.068-0.585,0.068
		c-0.148,0-0.303,0-0.465,0c-0.161,0-0.343,0-0.545,0c-2.381,0-4.113,0.493-5.196,1.479c-1.083,0.985-1.625,2.472-1.625,4.456v1.026
		h12.35v20.039h-3.592v-17.436h-8.637v17.436H313.173z"/>
	<path fill="#FFFFFF" d="M343.463,117.647c1.225,0,2.354,0.206,3.391,0.616c1.035,0.41,1.93,1.002,2.684,1.775
		c0.753,0.773,1.342,1.729,1.766,2.865c0.424,1.138,0.636,2.433,0.636,3.885c0,0.565-0.061,0.942-0.182,1.131
		s-0.351,0.282-0.687,0.282h-13.602c0.027,1.291,0.202,2.415,0.525,3.37c0.322,0.955,0.767,1.752,1.332,2.392
		c0.564,0.639,1.237,1.116,2.018,1.433s1.654,0.474,2.623,0.474c0.902,0,1.679-0.104,2.331-0.312
		c0.653-0.208,1.214-0.434,1.685-0.676s0.865-0.468,1.182-0.677c0.315-0.208,0.588-0.312,0.816-0.312
		c0.297,0,0.525,0.114,0.687,0.343l1.009,1.312c-0.443,0.538-0.975,1.006-1.594,1.402s-1.281,0.724-1.988,0.979
		c-0.706,0.256-1.436,0.447-2.189,0.575s-1.5,0.191-2.24,0.191c-1.412,0-2.714-0.238-3.904-0.716s-2.22-1.178-3.088-2.099
		c-0.867-0.922-1.543-2.062-2.027-3.421c-0.484-1.358-0.727-2.919-0.727-4.682c0-1.426,0.219-2.758,0.656-3.996
		c0.437-1.237,1.065-2.311,1.887-3.219c0.82-0.907,1.822-1.621,3.006-2.139S341.983,117.647,343.463,117.647z M343.543,120.291
		c-1.734,0-3.101,0.502-4.096,1.504c-0.996,1.002-1.615,2.392-1.857,4.167h11.119c0-0.834-0.113-1.598-0.342-2.29
		c-0.229-0.693-0.566-1.292-1.01-1.796c-0.443-0.505-0.985-0.895-1.625-1.171C345.094,120.43,344.364,120.291,343.543,120.291z"/>
	<path fill="#FFFFFF" d="M370.907,138.413c-0.511,0-0.834-0.249-0.968-0.747l-0.324-2.481c-0.874,1.062-1.873,1.914-2.996,2.553
		s-2.412,0.958-3.864,0.958c-1.171,0-2.233-0.226-3.188-0.676s-1.77-1.113-2.441-1.987c-0.674-0.875-1.191-1.965-1.555-3.27
		s-0.545-2.805-0.545-4.5c0-1.507,0.202-2.909,0.605-4.208c0.404-1.298,0.986-2.425,1.746-3.38s1.685-1.705,2.774-2.25
		s2.327-0.817,3.714-0.817c1.25,0,2.32,0.212,3.208,0.636s1.682,1.02,2.382,1.786v-11.342h3.592v29.726H370.907z M363.946,135.79
		c1.17,0,2.196-0.27,3.078-0.808c0.881-0.538,1.691-1.298,2.432-2.28v-9.889c-0.66-0.888-1.383-1.51-2.17-1.866
		s-1.658-0.535-2.613-0.535c-1.91,0-3.377,0.68-4.399,2.039c-1.022,1.358-1.534,3.296-1.534,5.812c0,1.332,0.115,2.472,0.344,3.42
		c0.229,0.949,0.564,1.729,1.009,2.342s0.989,1.059,1.635,1.342C362.371,135.648,363.112,135.79,363.946,135.79z"/>
	<path fill="#FFFFFF" d="M411.227,138.413h-3.027c-0.35,0-0.633-0.087-0.848-0.263c-0.215-0.175-0.377-0.396-0.484-0.666
		l-2.703-6.981h-12.977l-2.704,6.981c-0.095,0.242-0.255,0.458-0.484,0.646c-0.229,0.188-0.511,0.282-0.847,0.282h-3.027
		l11.562-28.918h3.976L411.227,138.413z M392.278,127.678h10.797l-4.541-11.766c-0.296-0.727-0.586-1.635-0.867-2.724
		c-0.148,0.552-0.293,1.059-0.435,1.523c-0.142,0.464-0.279,0.871-0.413,1.221L392.278,127.678z"/>
	<path fill="#FFFFFF" d="M421.196,117.628c0.888,0,1.718,0.098,2.492,0.292c0.773,0.195,1.477,0.481,2.108,0.858h5.55v1.331
		c0,0.444-0.283,0.727-0.848,0.848l-2.32,0.323c0.457,0.875,0.686,1.85,0.686,2.926c0,0.996-0.191,1.9-0.575,2.715
		c-0.384,0.813-0.915,1.51-1.595,2.088c-0.68,0.579-1.486,1.023-2.421,1.332c-0.936,0.31-1.961,0.465-3.077,0.465
		c-0.956,0-1.857-0.114-2.705-0.344c-0.43,0.278-0.756,0.577-0.979,0.897c-0.222,0.32-0.332,0.633-0.332,0.938
		c0,0.501,0.194,0.88,0.584,1.138c0.391,0.257,0.908,0.441,1.555,0.553c0.646,0.111,1.379,0.167,2.199,0.167s1.658,0,2.513,0
		s1.691,0.075,2.513,0.225c0.82,0.149,1.553,0.395,2.199,0.735c0.646,0.341,1.164,0.811,1.554,1.41
		c0.39,0.599,0.585,1.375,0.585,2.328c0,0.885-0.219,1.743-0.655,2.574c-0.438,0.83-1.066,1.569-1.888,2.217
		c-0.82,0.646-1.822,1.164-3.006,1.552c-1.184,0.389-2.523,0.582-4.016,0.582c-1.494,0-2.803-0.147-3.926-0.443
		c-1.123-0.297-2.055-0.694-2.795-1.192s-1.295-1.074-1.664-1.728c-0.371-0.653-0.556-1.336-0.556-2.05
		c0-1.011,0.319-1.869,0.959-2.576c0.639-0.707,1.517-1.27,2.634-1.687c-0.579-0.269-1.039-0.628-1.383-1.078
		c-0.344-0.449-0.515-1.051-0.515-1.804c0-0.295,0.054-0.601,0.161-0.916s0.273-0.628,0.494-0.937
		c0.223-0.31,0.495-0.604,0.818-0.887c0.322-0.282,0.699-0.53,1.129-0.746c-1.008-0.564-1.799-1.314-2.371-2.25
		c-0.571-0.935-0.857-2.027-0.857-3.279c0-0.995,0.191-1.899,0.576-2.714c0.383-0.813,0.918-1.507,1.604-2.078
		c0.687-0.572,1.504-1.013,2.452-1.322S420.065,117.628,421.196,117.628z M427.573,139.45c0-0.521-0.142-0.939-0.424-1.255
		c-0.283-0.315-0.666-0.56-1.15-0.731c-0.484-0.171-1.043-0.298-1.676-0.38c-0.632-0.083-1.298-0.124-1.998-0.124
		c-0.699,0-1.412,0-2.139,0s-1.42-0.091-2.078-0.272c-0.768,0.364-1.389,0.809-1.867,1.334c-0.477,0.525-0.716,1.152-0.716,1.88
		c0,0.458,0.118,0.886,0.353,1.283c0.236,0.397,0.596,0.741,1.08,1.031c0.484,0.289,1.093,0.519,1.826,0.687
		c0.733,0.169,1.598,0.253,2.594,0.253c0.969,0,1.836-0.089,2.603-0.268s1.416-0.433,1.948-0.761
		c0.531-0.33,0.938-0.722,1.221-1.174C427.431,140.5,427.573,139.999,427.573,139.45z M421.196,128.424
		c0.727,0,1.368-0.101,1.927-0.303c0.558-0.201,1.026-0.484,1.402-0.848s0.659-0.797,0.848-1.302
		c0.188-0.504,0.282-1.059,0.282-1.664c0-1.252-0.38-2.247-1.14-2.987c-0.761-0.739-1.866-1.109-3.319-1.109
		c-1.439,0-2.54,0.37-3.3,1.109c-0.761,0.74-1.14,1.735-1.14,2.987c0,0.605,0.097,1.16,0.292,1.664
		c0.194,0.505,0.481,0.938,0.857,1.302c0.377,0.363,0.841,0.646,1.393,0.848C419.85,128.323,420.482,128.424,421.196,128.424z"/>
	<path fill="#FFFFFF" d="M443.03,117.647c1.225,0,2.354,0.206,3.391,0.616c1.035,0.41,1.93,1.002,2.684,1.775
		c0.753,0.773,1.342,1.729,1.766,2.865c0.424,1.138,0.636,2.433,0.636,3.885c0,0.565-0.061,0.942-0.182,1.131
		s-0.351,0.282-0.687,0.282h-13.602c0.027,1.291,0.202,2.415,0.525,3.37c0.322,0.955,0.767,1.752,1.332,2.392
		c0.564,0.639,1.237,1.116,2.018,1.433s1.654,0.474,2.623,0.474c0.902,0,1.679-0.104,2.331-0.312
		c0.653-0.208,1.214-0.434,1.685-0.676s0.865-0.468,1.182-0.677c0.315-0.208,0.588-0.312,0.816-0.312
		c0.297,0,0.525,0.114,0.687,0.343l1.009,1.312c-0.443,0.538-0.975,1.006-1.594,1.402s-1.281,0.724-1.988,0.979
		c-0.706,0.256-1.436,0.447-2.189,0.575s-1.5,0.191-2.24,0.191c-1.412,0-2.714-0.238-3.904-0.716s-2.22-1.178-3.088-2.099
		c-0.867-0.922-1.543-2.062-2.027-3.421c-0.484-1.358-0.727-2.919-0.727-4.682c0-1.426,0.219-2.758,0.656-3.996
		c0.437-1.237,1.065-2.311,1.887-3.219c0.82-0.907,1.822-1.621,3.006-2.139S441.549,117.647,443.03,117.647z M443.11,120.291
		c-1.734,0-3.101,0.502-4.096,1.504c-0.996,1.002-1.615,2.392-1.857,4.167h11.119c0-0.834-0.113-1.598-0.342-2.29
		c-0.229-0.693-0.566-1.292-1.01-1.796c-0.443-0.505-0.985-0.895-1.625-1.171C444.66,120.43,443.93,120.291,443.11,120.291z"/>
	<path fill="#FFFFFF" d="M456.085,138.413v-20.442h2.14c0.511,0,0.834,0.249,0.969,0.747l0.281,2.22
		c0.889-0.982,1.881-1.776,2.977-2.382c1.097-0.605,2.365-0.908,3.805-0.908c1.116,0,2.102,0.186,2.956,0.556
		s1.567,0.895,2.14,1.573c0.571,0.68,1.005,1.497,1.301,2.452c0.297,0.956,0.444,2.012,0.444,3.169v13.016h-3.592v-13.016
		c0-1.548-0.354-2.748-1.06-3.603c-0.707-0.854-1.786-1.281-3.238-1.281c-1.063,0-2.057,0.256-2.977,0.767
		c-0.922,0.512-1.773,1.204-2.554,2.078v15.055H456.085z"/>
	<path fill="#FFFFFF" d="M492.469,121.604c-0.107,0.147-0.215,0.262-0.322,0.343s-0.262,0.121-0.465,0.121
		c-0.201,0-0.42-0.084-0.655-0.252s-0.534-0.354-0.897-0.556c-0.363-0.201-0.805-0.387-1.322-0.555s-1.154-0.252-1.907-0.252
		c-0.995,0-1.876,0.179-2.644,0.534c-0.767,0.357-1.409,0.871-1.928,1.544c-0.518,0.673-0.907,1.487-1.17,2.442
		c-0.262,0.955-0.394,2.024-0.394,3.208c0,1.238,0.142,2.338,0.424,3.3s0.679,1.769,1.19,2.422c0.512,0.652,1.134,1.149,1.867,1.493
		c0.732,0.343,1.557,0.515,2.472,0.515c0.874,0,1.595-0.104,2.159-0.313c0.565-0.208,1.036-0.44,1.413-0.696
		c0.376-0.255,0.687-0.487,0.929-0.696c0.242-0.208,0.484-0.312,0.727-0.312c0.309,0,0.537,0.114,0.686,0.343l1.009,1.312
		c-0.888,1.09-1.997,1.887-3.329,2.391c-1.332,0.505-2.738,0.757-4.219,0.757c-1.277,0-2.465-0.235-3.561-0.706
		c-1.098-0.471-2.049-1.153-2.855-2.048c-0.808-0.895-1.443-1.995-1.908-3.3c-0.463-1.305-0.695-2.791-0.695-4.46
		c0-1.52,0.211-2.926,0.635-4.218c0.424-1.291,1.043-2.404,1.857-3.34c0.813-0.935,1.818-1.664,3.017-2.189
		c1.197-0.524,2.569-0.787,4.116-0.787c1.426,0,2.691,0.232,3.795,0.696c1.103,0.465,2.078,1.12,2.926,1.968L492.469,121.604z"/>
	<path fill="#FFFFFF" d="M503.367,144.447c-0.121,0.269-0.273,0.484-0.455,0.646s-0.461,0.242-0.837,0.242h-2.664l3.733-8.112
		l-8.436-19.252h3.107c0.311,0,0.553,0.077,0.727,0.232c0.176,0.154,0.303,0.326,0.384,0.515l5.469,12.874
		c0.121,0.297,0.226,0.593,0.313,0.889c0.087,0.296,0.164,0.599,0.231,0.908c0.095-0.31,0.188-0.612,0.282-0.908
		s0.202-0.599,0.323-0.908l5.308-12.854c0.08-0.216,0.219-0.394,0.414-0.535c0.194-0.142,0.406-0.212,0.635-0.212h2.865
		L503.367,144.447z"/>
</g>
<rect x="183.915" y="33.598" fill="#FFFFFF" width="1" height="112.766"/>
<g id="logo" transform="translate(16.200000, 11.400000)">
	<path id="Shape" fill="#FFFFFF" d="M81.046,69.824c-1.493-0.792-3.834-1.608-7.021-2.453c-3.188-0.841-7.02-1.264-11.499-1.264
		c-3.884,0-7.269,0.771-10.155,2.304c-2.891,1.54-4.329,3.939-4.329,7.212c0,1.687,0.32,3.173,0.972,4.458
		c0.646,1.289,1.643,2.453,2.986,3.492c1.345,1.041,3.012,2.006,5.005,2.896c1.988,0.894,4.381,1.835,7.169,2.823
		c3.682,1.39,6.97,2.752,9.854,4.091c2.89,1.338,5.354,2.897,7.395,4.685c2.039,1.782,3.605,3.94,4.706,6.469
		c1.093,2.525,1.643,5.625,1.643,9.293c0,7.134-2.667,12.535-7.991,16.201c-5.327,3.668-12.918,5.502-22.773,5.502
		c-6.87,0-11.829-0.459-16.132-1.638c-1.94-0.565-4.05-1.229-5.368-1.664l-0.014-12.834c1.67,0.636,4.085,1.47,7.618,2.677
		c4.144,1.365,8.106,1.705,13.893,1.784c5.675,0,9.879-0.815,12.618-2.303c2.738-1.487,4.107-3.866,4.107-7.136
		c0-3.368-1.345-6.045-4.033-8.027c-2.688-1.98-7.119-4.213-13.291-6.689c-2.987-1.188-5.854-2.402-8.59-3.644
		c-2.741-1.237-5.104-2.696-7.095-4.383c-1.993-1.685-3.585-3.718-4.78-6.097c-1.195-2.377-1.792-5.299-1.792-8.771
		c0-6.84,2.54-12.264,7.616-16.277c5.079-4.015,11.999-6.021,20.76-6.021c2.189,0,4.381,0.125,6.573,0.37
		c2.188,0.248,4.229,0.546,6.125,0.894c1.891,0.348,3.558,0.721,5.002,1.115c0.307,0.083,0.807,0.227,0.807,0.227L81.046,69.824z"/>
	<path id="Shape_1_" fill="#FFFFFF" d="M121.642,135.46c-9.608-0.111-16.578-2.26-20.161-5.73
		c-3.583-3.468-5.377-8.865-5.377-16.203V24.018l13.89-3.176v90.457c0,2.28,0.199,4.159,0.599,5.646
		c0.396,1.487,1.046,2.678,1.938,3.567c0.896,0.892,2.094,1.562,3.586,2.006c1.493,0.447,3.334,0.815,5.525,1.114V135.46
		L121.642,135.46z"/>
</g>
</svg>
