<?xml version="1.0" encoding="UTF-8"?>
<svg id="Layer_2" data-name="Layer 2" xmlns="http://www.w3.org/2000/svg" viewBox="0 0 2309.06 1057.73">
  <defs>
    <style>
      .cls-1 {
        fill: #231f20;
        stroke-width: 0px;
      }
    </style>
  </defs>
  <g id="Layer_1-2" data-name="Layer 1">
    <g>
      <path class="cls-1" d="m2309.06,1057.73H833.51v-444.76l-189.58,215.18-193.25-215.68v445.26H0V99.96L178.38,0h257.45l208.06,208.92L842.32,11.3h1466.74v1046.43Zm-1445.55-30h1415.55V41.3H854.71l-210.91,210.04L423.36,30h-237.15l-109.64,61.42-46.57,26.11v910.2h390.68v-493.7l223.06,248.95,219.77-249.45v494.19Z"/>
      <g>
        <path class="cls-1" d="m2111.47,155.26h-16.87v24.79h-10.35v-66.83h31.78c6.67,0,11.98,2.14,15.94,6.43,3.96,4.29,5.97,9.18,5.97,14.73,0,4.57-1.35,8.71-4.1,12.49-2.75,3.77-6.57,6.29-11.46,7.55l17.24,25.68h-11.93l-16.22-24.84Zm-16.96-9.23h20.88c3.77,0,6.8-1.16,9.09-3.45,2.28-2.28,3.45-5.04,3.45-8.25s-1.12-6.01-3.36-8.34c-2.24-2.33-5.17-3.5-8.81-3.5h-21.16l-.09,23.53Z"/>
        <path class="cls-1" d="m2107.17,218.76c-36.9,0-66.93-30.02-66.93-66.93s30.02-66.93,66.93-66.93,66.93,30.02,66.93,66.93-30.02,66.93-66.93,66.93Zm0-127.77c-33.55,0-60.84,27.29-60.84,60.84s27.29,60.84,60.84,60.84,60.84-27.29,60.84-60.84-27.29-60.84-60.84-60.84Z"/>
      </g>
      <g>
        <path class="cls-1" d="m1110.74,303.17l48.44-77.34h61.82v187.33h-63.16v-85.1l-36.67,62.09h-20.34l-36.93-62.09v85.1h-63.43v-187.33h62.36l47.9,77.34Z"/>
        <path class="cls-1" d="m1311.45,341.44v20.34h100.36v51.38h-165.66v-187.33h163.25v51.38h-97.95v18.2h84.3v46.03h-84.3Z"/>
        <path class="cls-1" d="m1431.61,413.15v-187.33h90.72c21.58,0,40.45,3.79,56.6,11.38,16.15,7.58,28.59,18.42,37.33,32.51,8.74,14.1,13.11,30.51,13.11,49.24s-4.37,35.73-13.11,49.91c-8.74,14.19-21.19,25.12-37.33,32.78-16.15,7.67-35.01,11.51-56.6,11.51h-90.72Zm87.78-54.86c12.67,0,22.79-3.52,30.37-10.57,7.58-7.05,11.37-16.54,11.37-28.5s-3.74-21.36-11.24-28.23c-7.49-6.87-17.66-10.3-30.51-10.3h-20.88v77.61h20.88Z"/>
        <path class="cls-1" d="m1716.61,413.15h-66.9v-187.33h66.9v187.33Z"/>
        <path class="cls-1" d="m1952.92,413.15h-70.12l-9.37-26.23h-67.17l-9.63,26.23h-69.05l79.21-187.33h66.91l79.21,187.33Zm-112.67-119.89l-18.2,50.31h36.13l-17.93-50.31Z"/>
      </g>
      <g>
        <path class="cls-1" d="m1110.01,569.03l48.44-77.34h61.82v187.33h-63.16v-85.1l-36.67,62.09h-20.34l-36.93-62.09v85.1h-63.43v-187.33h62.36l47.9,77.34Z"/>
        <path class="cls-1" d="m1456.31,679.02h-70.12l-9.37-26.23h-67.17l-9.63,26.23h-69.05l79.21-187.33h66.91l79.21,187.33Zm-112.67-119.89l-18.2,50.31h36.13l-17.93-50.31Z"/>
        <path class="cls-1" d="m1578.87,679.02l-33.72-49.51h-11.24v49.51h-66.9v-187.33h88.58c18.02,0,33.72,2.81,47.1,8.43,13.38,5.62,23.64,13.65,30.77,24.08,7.14,10.44,10.71,22.71,10.71,36.8s-3.08,24.98-9.23,34.79c-6.16,9.81-15.03,17.57-26.63,23.28l42.02,59.95h-71.45Zm-44.96-135.15v37.47h19.81c7.31,0,13.07-1.69,17.26-5.09,4.19-3.39,6.29-8.12,6.29-14.19,0-5.53-2.1-9.94-6.29-13.25-4.19-3.3-9.95-4.95-17.26-4.95h-19.81Z"/>
        <path class="cls-1" d="m1862.81,679.02h-73.33l-39.34-60.48-20.88,24.09v36.4h-66.9v-187.33h66.9v72.79l52.99-72.79h77.07l-68.24,79.21,71.72,108.12Z"/>
        <path class="cls-1" d="m1939.89,607.29v20.34h100.36v51.38h-165.66v-187.33h163.25v51.38h-97.95v18.2h84.3v46.03h-84.3Z"/>
        <path class="cls-1" d="m2051.75,491.68h174.22v54.86h-54.06v132.47h-66.91v-132.47h-53.26v-54.86Z"/>
      </g>
      <g>
        <path class="cls-1" d="m1074.92,814.6h-8.8l-7.74-17.07h-43.56l-7.73,17.07h-8.59l34.03-74.19h8.26l34.13,74.19Zm-38.26-64.87l-18.44,40.38h36.78l-18.34-40.38Z"/>
        <path class="cls-1" d="m1130.03,814.6v-74.19h29.36c8.05,0,15.08,1.52,21.09,4.56,6.01,3.04,10.65,7.35,13.94,12.93,3.28,5.58,4.93,12.08,4.93,19.5s-1.63,14.04-4.88,19.66c-3.25,5.62-7.9,9.95-13.94,12.98-6.04,3.04-13.09,4.56-21.14,4.56h-29.36Zm28.93-7.31c6.43,0,12.05-1.2,16.86-3.61,4.8-2.4,8.5-5.85,11.08-10.33,2.58-4.48,3.87-9.77,3.87-15.84s-1.29-11.45-3.87-15.9c-2.58-4.45-6.27-7.88-11.08-10.28-4.81-2.4-10.46-3.61-16.96-3.61h-20.67v59.57h20.77Z"/>
        <path class="cls-1" d="m1286.9,814.6h-8.06l-33.18-74.19h8.69l28.4,64.34h.22l28.4-64.34h8.69l-33.18,74.19Z"/>
        <path class="cls-1" d="m1383.25,780.26v27.03h49.07v7.31h-57.13v-74.19h56.07v7.31h-48.01v25.23h42.4v7.32h-42.4Z"/>
        <path class="cls-1" d="m1539.8,814.6l-24.27-27.03h-16.75v27.03h-8.16v-74.19h28.72c9.68,0,17.15,2.05,22.42,6.15,5.26,4.1,7.9,9.93,7.9,17.49,0,6.64-2.07,11.94-6.2,15.9-4.13,3.96-10.05,6.4-17.75,7.31l24.49,27.35h-10.39Zm-41.02-66.88v32.54h20.24c14.98,0,22.47-5.37,22.47-16.11,0-5.44-1.91-9.54-5.73-12.29-3.81-2.76-9.36-4.14-16.64-4.14h-20.35Z"/>
        <path class="cls-1" d="m1597.77,740.41h59.67v7.31h-25.76v66.88h-8.27v-66.88h-25.65v-7.31Z"/>
        <path class="cls-1" d="m1721.57,814.6h-8.16v-74.19h8.16v74.19Z"/>
        <path class="cls-1" d="m1792.69,812.7c-5.09-1.97-9.51-4.66-13.25-8.05l3.92-6.26c3.67,3.04,7.74,5.41,12.19,7.1,4.45,1.7,9.05,2.55,13.78,2.55,5.79,0,10.3-1.18,13.51-3.55,3.22-2.36,4.82-5.42,4.82-9.17,0-2.69-.71-4.88-2.12-6.57-1.42-1.7-3.52-3.09-6.31-4.19-2.79-1.09-6.62-2.17-11.5-3.23-8.9-1.98-15.47-4.6-19.71-7.85-4.24-3.25-6.36-7.84-6.36-13.78,0-4.17,1.16-7.79,3.49-10.86,2.34-3.07,5.51-5.42,9.54-7.05,4.03-1.63,8.59-2.44,13.68-2.44,9.25,0,17.66,2.79,25.23,8.37l-4.45,6.04c-2.96-2.12-6.31-3.8-10.02-5.03-3.71-1.24-7.47-1.85-11.29-1.85-5.44,0-9.73,1.16-12.88,3.49-3.14,2.34-4.72,5.48-4.72,9.44,0,2.54.67,4.66,2.02,6.36,1.34,1.69,3.42,3.14,6.25,4.34,2.82,1.2,6.68,2.37,11.55,3.5,6.29,1.35,11.29,2.83,15,4.45,3.71,1.63,6.5,3.75,8.37,6.36,1.87,2.62,2.81,5.97,2.81,10.07s-1.17,7.83-3.5,10.97c-2.33,3.15-5.56,5.56-9.7,7.26-4.13,1.69-8.89,2.54-14.26,2.54-5.65,0-11.02-.99-16.11-2.97Z"/>
        <path class="cls-1" d="m1902.6,814.6h-8.16v-74.19h8.16v74.19Z"/>
        <path class="cls-1" d="m1973.94,814.6h-8.16v-74.19h7.1l48.02,59.89v-59.89h8.27v74.19h-6.89l-48.33-60.2v60.2Z"/>
        <path class="cls-1" d="m2107.59,810.74c-5.87-3.29-10.46-7.81-13.78-13.57-3.32-5.76-4.98-12.28-4.98-19.55s1.64-13.83,4.93-19.66c3.28-5.83,7.84-10.39,13.67-13.68,5.83-3.28,12.42-4.93,19.77-4.93,5.37,0,10.38.94,15.05,2.81,4.66,1.88,8.83,4.61,12.51,8.21l-5.3,5.2c-6.15-5.79-13.5-8.69-22.05-8.69-5.73,0-10.86,1.29-15.42,3.87-4.56,2.58-8.13,6.2-10.71,10.86-2.58,4.66-3.87,10-3.87,16.01s1.27,11.3,3.82,15.9c2.54,4.59,6.13,8.18,10.76,10.76,4.63,2.58,9.91,3.87,15.84,3.87,8.13,0,15.02-2.47,20.67-7.42v-23.63h7.53v27.24c-3.68,3.6-7.99,6.4-12.93,8.37-4.95,1.98-10.18,2.97-15.69,2.97-7.35,0-13.96-1.64-19.82-4.93Z"/>
      </g>
    </g>
  </g>
</svg>